HIERARCHY
ROOT pelvis
{
  OFFSET 0 100 0
  CHANNELS 6 Xposition Yposition Zposition Zrotation Xrotation Yrotation
  JOINT pelvis_right_femur
  {
    OFFSET -10.78128 -3.44521 -0.5502486
    CHANNELS 3 Zrotation Xrotation Yrotation
    JOINT right_femur_tibia
    {
      OFFSET -0.8047443 -44.0398 -0.1307829
      CHANNELS 3 Zrotation Xrotation Yrotation
      JOINT right_tibia_foot
      {
        OFFSET 3.006224 -47.83518 -5
        CHANNELS 3 Zrotation Xrotation Yrotation
        End Site
        {
          OFFSET 0 -5 15
        }
      }
    }
  }
  JOINT pelvis_left_femur
  {
    OFFSET 10.78128 -3.44521 -0.5502486
    CHANNELS 3 Zrotation Xrotation Yrotation
    JOINT left_femur_tibia
    {
      OFFSET 0.8047443 -44.0398 -0.1307829
      CHANNELS 3 Zrotation Xrotation Yrotation
      JOINT left_tibia_foot
      {
        OFFSET -4.370144 -48.10324 -4.275266
        CHANNELS 3 Zrotation Xrotation Yrotation
        End Site
        {
          OFFSET 0 -5 15
        }
      }
    }
  }
  JOINT pelvis_spine1
  {
    OFFSET 0 6.468898 -3.129235
    CHANNELS 3 Zrotation Xrotation Yrotation
    JOINT spine1
    {
      OFFSET 0 23.15396 4.99043
      CHANNELS 3 Zrotation Xrotation Yrotation
      JOINT spine2
      {
        OFFSET 0 20.79997 -5.064912
        CHANNELS 3 Zrotation Xrotation Yrotation
        JOINT neck
        {
          OFFSET 0 14.38658 9.616178
          CHANNELS 3 Zrotation Xrotation Yrotation
          End Site
          {
            OFFSET 0 20 0
          }
        }
      }
      JOINT right_manubrium
      {
        OFFSET -5.722621 16.35077 3.967754
        CHANNELS 3 Zrotation Xrotation Yrotation
        JOINT right_clavicle
        {
          OFFSET -13.16364 1.694482 -4.693211
          CHANNELS 3 Zrotation Xrotation Yrotation
          JOINT right_humerus
          {
            OFFSET -28.5034 -0.3100689 -2.792744
            CHANNELS 3 Zrotation Xrotation Yrotation
            JOINT right_radius
            {
              OFFSET -25.15693 0.02248979 -1.271978
              CHANNELS 3 Zrotation Xrotation Yrotation
              End Site
              {
                OFFSET -15 0 0
              }
            }
          }
        }
      }
      JOINT left_manubrium
      {
        OFFSET 5.722621 16.35077 3.967754
        CHANNELS 3 Zrotation Xrotation Yrotation
        JOINT left_clavicle
        {
          OFFSET 13.16364 1.694482 -4.693211
          CHANNELS 3 Zrotation Xrotation Yrotation
          JOINT left_humerus
          {
            OFFSET 29.39168 -1.063119 -2.237045
            CHANNELS 3 Zrotation Xrotation Yrotation
            JOINT left_radius
            {
              OFFSET 24.59957 -0.9528479 0.9047498
              CHANNELS 3 Zrotation Xrotation Yrotation
              End Site
              {
                OFFSET 15 -0 -0
              }
            }
          }
        }
      }
    }
  }
}
MOTION
Frames: 7
Frame Time: 0.0416666666667
-1781.646 70.96822 1094.783 -6.091339 3.539749 -149.7142 -1.788741 3.081216 -7.360551 -0 22.41945 -0 -15.04289 -3.736691 8.655601 -2.488809 -11.70573 -9.734705 -0 27.75142 -0 -3.196603 -4.840777 15.76724 -3.099789 0.3407543 6.905063 -2.481915 12.53247 -2.719623 -1.835803 21.55248 10.26112 14.834 -9.396731 -0.7075291 13.91551 -15.80701 11.84849 70.69831 45.53372 -4.847864 -0 0 22.23817 -22.15896 8.88609 2.793813 11.39518 -24.82376 -8.424752 -93.70548 2.024665 19.46577 -0 0 6.340507 23.25346 6.838218 -23.91867
-1785.597 71.03343 1090.483 -6.071741 3.573342 -150.0301 -1.788741 3.081221 -7.36055 -0 22.41945 -0 -15.04289 -3.736694 8.655601 -2.488808 -11.70574 -9.734705 -0 27.75142 -0 -3.196603 -4.840775 15.76725 -3.099789 0.3407535 6.905064 -2.481914 12.53247 -2.719623 -1.835803 21.55248 10.26112 14.834 -9.39673 -0.7075287 13.91551 -15.80701 11.84849 70.69831 45.53372 -4.847862 -0 0 22.23817 -22.15896 8.886091 2.793814 11.39518 -24.82376 -8.424751 -93.70549 2.024665 19.46578 -0 0 6.340511 23.25346 6.838219 -23.91867
-1789.524 71.09865 1086.161 -6.051957 3.606828 -150.346 -1.788741 3.081226 -7.360549 -0 22.41946 -0 -15.04289 -3.736697 8.6556 -2.488808 -11.70574 -9.734705 -0 27.75141 -0 -3.196604 -4.840774 15.76725 -3.099788 0.3407528 6.905064 -2.481914 12.53247 -2.719623 -1.835803 21.55248 10.26112 14.834 -9.39673 -0.7075283 13.91551 -15.80701 11.84849 70.69831 45.53372 -4.84786 -0 0 22.23817 -22.15896 8.886092 2.793815 11.39517 -24.82375 -8.42475 -93.70549 2.024665 19.46578 -0 0 6.340514 23.25346 6.83822 -23.91866
-1793.427 71.16387 1081.817 -6.031988 3.640204 -150.662 -1.788742 3.08123 -7.360548 -0 22.41946 -0 -15.04289 -3.736699 8.6556 -2.488807 -11.70574 -9.734705 -0 27.75141 -0 -3.196605 -4.840772 15.76725 -3.099788 0.3407522 6.905064 -2.481914 12.53247 -2.719623 -1.835803 21.55248 10.26112 14.834 -9.396729 -0.7075279 13.91551 -15.80701 11.84849 70.69831 45.53372 -4.847858 -0 0 22.23817 -22.15896 8.886093 2.793816 11.39517 -24.82375 -8.42475 -93.70549 2.024665 19.46578 -0 0 6.340518 23.25346 6.838221 -23.91866
-1797.306 71.22908 1077.452 -6.011834 3.67347 -150.978 -1.788742 3.081233 -7.360547 -0 22.41946 -0 -15.04289 -3.736701 8.6556 -2.488806 -11.70574 -9.734706 -0 27.75141 -0 -3.196605 -4.840771 15.76725 -3.099788 0.3407517 6.905064 -2.481914 12.53247 -2.719622 -1.835803 21.55248 10.26112 14.834 -9.396729 -0.7075275 13.91551 -15.80701 11.84849 70.69831 45.53373 -4.847855 -0 0 22.23817 -22.15896 8.886094 2.793817 11.39517 -24.82375 -8.424749 -93.70549 2.024665 19.46578 -0 0 6.340521 23.25346 6.838221 -23.91866
-1801.161 71.2943 1073.065 -5.991495 3.706624 -151.294 -1.788742 3.081236 -7.360547 -0 22.41946 -0 -15.04289 -3.736702 8.6556 -2.488806 -11.70575 -9.734707 -0 27.7514 -0 -3.196606 -4.84077 15.76725 -3.099788 0.3407514 6.905064 -2.481914 12.53247 -2.719622 -1.835803 21.55248 10.26112 14.834 -9.396728 -0.7075271 13.91551 -15.80701 11.84849 70.6983 45.53373 -4.847853 -0 0 22.23817 -22.15896 8.886095 2.793818 11.39517 -24.82375 -8.424749 -93.70549 2.024665 19.46579 -0 0 6.340523 23.25346 6.838222 -23.91866
-1804.992 71.35951 1068.657 -5.970974 3.739666 -151.61 -1.788743 3.081239 -7.360547 -0 22.41946 -0 -15.04289 -3.736703 8.655601 -2.488806 -11.70575 -9.734708 -0 27.7514 -0 -3.196606 -4.840769 15.76725 -3.099788 0.3407511 6.905064 -2.481914 12.53247 -2.719621 -1.835803 21.55248 10.26112 14.834 -9.396727 -0.7075267 13.91551 -15.80701 11.84849 70.6983 45.53373 -4.847851 -0 0 22.23817 -22.15896 8.886096 2.793819 11.39517 -24.82375 -8.424748 -93.70549 2.024665 19.46579 -0 0 6.340526 23.25346 6.838223 -23.91866
